<?xml version="1.0" encoding="UTF-8" standalone="no"?>
<!-- Created with Inkscape (http://www.inkscape.org/) -->

<svg
   width="67.733337mm"
   height="67.733337mm"
   viewBox="0 0 67.733337 67.733337"
   version="1.1"
   id="svg8"
   inkscape:version="1.1.2 (0a00cf5339, 2022-02-04)"
   sodipodi:docname="librewolf.svg"
   xmlns:inkscape="http://www.inkscape.org/namespaces/inkscape"
   xmlns:sodipodi="http://sodipodi.sourceforge.net/DTD/sodipodi-0.dtd"
   xmlns="http://www.w3.org/2000/svg"
   xmlns:svg="http://www.w3.org/2000/svg"
   xmlns:rdf="http://www.w3.org/1999/02/22-rdf-syntax-ns#"
   xmlns:cc="http://creativecommons.org/ns#"
   xmlns:dc="http://purl.org/dc/elements/1.1/">
  <defs
     id="defs2" />
  <sodipodi:namedview
     id="base"
     pagecolor="#ffffff"
     bordercolor="#666666"
     borderopacity="1.0"
     inkscape:pageopacity="0.0"
     inkscape:pageshadow="2"
     inkscape:zoom="2.8"
     inkscape:cx="167.14286"
     inkscape:cy="111.07143"
     inkscape:document-units="mm"
     inkscape:current-layer="layer1"
     showgrid="false"
     inkscape:window-width="1919"
     inkscape:window-height="1024"
     inkscape:window-x="1"
     inkscape:window-y="28"
     inkscape:window-maximized="1"
     inkscape:showpageshadow="false"
     units="px"
     fit-margin-top="0"
     fit-margin-left="0"
     fit-margin-right="0"
     fit-margin-bottom="0"
     inkscape:pagecheckerboard="0" />
  <metadata
     id="metadata5">
    <rdf:RDF>
      <cc:Work
         rdf:about="">
        <dc:format>image/svg+xml</dc:format>
        <dc:type
           rdf:resource="http://purl.org/dc/dcmitype/StillImage" />
      </cc:Work>
    </rdf:RDF>
  </metadata>
  <g
     inkscape:label="Layer 1"
     inkscape:groupmode="layer"
     id="layer1"
     transform="translate(-42.106554,-153.8982)">
    <circle
       style="fill:#00acff;fill-opacity:1;stroke:none;stroke-width:0.53545821;stroke-miterlimit:4;stroke-dasharray:none"
       id="path875"
       cx="75.973221"
       cy="187.76486"
       r="33.866669" />
    <path
       style="fill:#ffffff;stroke-width:0.13229167"
       d="m 72.543594,214.67719 c -4.744093,-0.60875 -9.281981,-2.49991 -13.241953,-5.51858 -1.29157,-0.98455 -3.714943,-3.42363 -4.772834,-4.80375 -2.96241,-3.86476 -4.804479,-8.2508 -5.41218,-12.88661 -0.260164,-1.98464 -0.258719,-5.63349 0.0029,-7.44738 1.308078,-9.0677 7.01463,-16.8454 15.20915,-20.72918 3.811512,-1.80647 7.300266,-2.57114 11.730683,-2.57114 7.165903,0 13.5265,2.56749 18.680882,7.54063 2.483054,2.39575 4.148141,4.66808 5.573968,7.60677 1.92868,3.9751 2.70979,7.43276 2.70979,11.99526 0,6.00619 -1.7345,11.24407 -5.336957,16.11672 -1.070527,1.44797 -3.161747,3.64749 -4.549468,4.78507 -3.806562,3.12041 -8.658642,5.23183 -13.473174,5.86296 -1.663528,0.21807 -5.593318,0.24524 -7.120854,0.0492 z m 10.041381,-4.86547 c 2.898391,-0.91366 5.260364,-2.14146 7.540624,-3.91979 1.212494,-0.9456 3.308223,-3.06144 4.186916,-4.22711 2.38328,-3.16162 4.004927,-7.12196 4.482067,-10.94597 0.229814,-1.84182 0.09634,-5.73827 -0.2545,-7.4296 -0.9294,-4.48046 -2.931647,-8.26499 -6.086007,-11.50342 -1.966575,-2.01898 -3.756882,-3.34972 -6.060203,-4.50458 -3.495001,-1.75236 -6.489835,-2.46043 -10.423481,-2.46442 -4.164073,-0.004 -7.815325,0.95024 -11.429055,2.98766 -3.289753,1.85476 -6.690628,5.25952 -8.553227,8.563 -1.371786,2.43299 -2.37583,5.32029 -2.767595,7.95869 -0.256867,1.72991 -0.261933,5.16508 -0.01006,6.82145 0.504067,3.31489 1.761474,6.59111 3.584314,9.33904 0.995409,1.50058 0.964154,1.48393 1.842248,0.98153 1.570774,-0.8987 1.980396,-1.33342 2.836087,-3.00984 1.000624,-1.96036 2.070459,-3.6735 3.037094,-4.86332 1.115822,-1.37347 1.269228,-1.61793 1.828988,-2.9147 0.281654,-0.65249 0.786977,-1.61074 1.122938,-2.12943 l 0.61084,-0.94309 -0.79023,-0.77671 c -1.049647,-1.03168 -1.922751,-2.2016 -2.087012,-2.79651 -0.167761,-0.60758 0.03021,-0.9466 0.818744,-1.40207 0.797354,-0.46057 1.367585,-0.5929 3.498657,-0.81193 1.037629,-0.10665 2.164153,-0.30199 2.518962,-0.43681 0.353024,-0.13414 1.407825,-0.70824 2.344001,-1.27579 2.702947,-1.63863 2.931619,-1.72344 4.552111,-1.68831 1.368686,0.0297 1.371262,0.0291 2.182813,-0.46143 1.700674,-1.02802 4.14305,-2.88289 7.357044,-5.58733 0.61632,-0.5186 1.21002,-0.92569 1.31934,-0.90464 0.45462,0.0876 1.289567,2.13636 1.416407,3.47562 0.07693,0.81225 -0.08023,1.6155 -0.562014,2.87261 -0.13146,0.34301 -0.19208,0.67043 -0.134706,0.7276 0.13774,0.13726 0.610706,-0.4535 0.610706,-0.76279 0,-0.39435 0.261127,-0.43936 0.616327,-0.10623 0.258235,0.24218 0.480842,0.31151 1.000202,0.31151 0.567073,0 0.707447,0.0526 0.928773,0.3479 0.375574,0.50112 0.463647,1.86688 0.176201,2.73231 -0.279641,0.84191 -1.124801,1.81287 -1.891829,2.17341 -0.686334,0.32262 -2.075841,1.67928 -2.726081,2.66164 -0.248906,0.37604 -0.715586,1.15995 -1.037066,1.74204 -0.321487,0.58208 -0.86074,1.46154 -1.19834,1.95436 -0.664294,0.96972 -1.233147,2.3224 -1.782214,4.23798 -0.322553,1.1253 -0.34962,1.41826 -0.362953,3.92797 -0.01613,3.0317 -0.172894,3.77561 -0.9925,4.7091 -0.931805,1.06126 -1.861937,3.39186 -1.940127,4.8613 -0.04935,0.92751 -0.192246,1.83164 -0.395304,2.50122 -0.08942,0.29484 0.07752,0.2914 1.072102,-0.0221 z"
       id="path847"
       inkscape:connector-curvature="0" />
    <path
       sodipodi:type="star"
       style="fill:#00acff;fill-opacity:1;stroke:none;stroke-width:1.5;stroke-miterlimit:4;stroke-dasharray:none"
       id="path814"
       sodipodi:sides="4"
       sodipodi:cx="18.854025"
       sodipodi:cy="172.98837"
       sodipodi:r1="1.6036172"
       sodipodi:r2="1.1339285"
       sodipodi:arg1="1.5707963"
       sodipodi:arg2="2.3561945"
       inkscape:flatsided="true"
       inkscape:rounded="0"
       inkscape:randomized="0"
       d="m 18.854025,174.59199 -1.603617,-1.60362 1.603617,-1.60361 1.603617,1.60361 z"
       transform="matrix(0.23203125,0.40188991,-0.99392962,0.57384553,246.21921,73.888081)" />
    <path
       style="fill:#ffffff;stroke-width:0.357143"
       d="M 115.73237,229.61289 C 95.992899,227.40173 74.670853,217.65032 59.734108,204.00267 42.106837,187.8967 31.056564,167.87412 27.096215,144.86432 c -0.9392,-5.4568 -1.345119,-21.87917 -0.69611,-28.16269 C 27.753307,103.60033 32.474468,89.152039 39.2797,77.285875 52.414835,54.382366 74.233917,37.160096 99.445389,29.795807 109.21,26.943559 118.46166,25.882409 131.02182,26.174047 c 10.47338,0.243184 18.06265,1.372244 26.73379,3.977203 21.96045,6.597295 42.29299,21.774968 55.41472,41.365535 6.40795,9.566993 12.09974,22.766929 14.51033,33.651225 1.50875,6.81228 1.98911,11.22342 2.19855,20.18913 0.22099,9.46025 -0.29611,16.00517 -1.88444,23.85133 -5.15089,25.44478 -21.34676,49.22175 -43.70906,64.16871 -5.02358,3.35776 -16.11087,8.88462 -22.14285,11.0379 -5.13226,1.8321 -13.13376,3.85926 -18.57143,4.70502 -4.46053,0.69378 -23.09942,1.02371 -27.83906,0.49279 z m 39.08906,-18.71798 c 9.22246,-3.05705 17.77084,-7.51066 25.3661,-13.21544 4.67339,-3.51017 13.07066,-11.70076 16.59818,-16.18963 8.37819,-10.6615 14.75027,-25.20481 17.16145,-39.16841 1.39837,-8.09823 1.02459,-23.63448 -0.78191,-32.5 -0.94555,-4.64035 -3.48673,-12.428566 -5.65758,-17.339388 C 200.23009,76.01901 186.35361,60.84776 170.51061,52.032899 161.17898,46.84089 151.58706,43.543441 141.07143,41.912477 135.31775,41.020089 121.16596,41.01521 115.35714,41.903611 103.68369,43.688951 91.979203,47.855443 82.857142,53.472762 72.056385,60.123814 60.355929,71.77025 53.67359,82.521571 47.235864,92.879335 42.415009,107.31312 41.432458,119.17191 c -1.264455,15.26118 0.544029,28.19936 5.781781,41.3638 3.582543,9.00428 10.583012,20.53572 12.466756,20.53572 1.589398,0 6.920347,-3.32178 9.279115,-5.78193 0.943086,-0.98362 2.628954,-3.53781 3.907718,-5.92044 5.19005,-9.67023 7.926804,-13.98673 12.959707,-20.44049 2.51479,-3.22475 3.75435,-5.25809 5.769607,-9.46429 1.411682,-2.94642 3.49114,-6.84918 4.621018,-8.67278 l 2.054322,-3.31565 -3.029661,-3.18366 c -4.926475,-5.17688 -7.437218,-8.74631 -7.947764,-11.29905 -0.179847,-0.89923 -0.02004,-1.33309 0.860303,-2.33575 2.404875,-2.739 5.647393,-3.7933 15.2375,-4.95447 9.66233,-1.1699 9.76526,-1.20683 19.56079,-7.018199 9.3068,-5.521411 9.39842,-5.554304 16.15349,-5.799086 5.4793,-0.19855 5.78772,-0.249739 7.5,-1.244832 5.34227,-3.104653 15.01605,-10.29255 25.53572,-18.973764 6.67052,-5.504761 7.85556,-6.327236 8.42979,-5.850675 0.89627,0.743839 2.28516,3.501253 3.43089,6.811493 1.04789,3.027528 1.15329,3.716685 1.13845,7.443571 -0.0146,3.682364 -0.13366,4.437272 -1.1506,7.299139 -1.2591,3.543354 -1.41838,4.843718 -0.59328,4.843718 0.62265,0 1.95572,-2.013961 1.9577,-2.957636 0.002,-1.005525 0.92694,-1.100128 2.12142,-0.21701 0.76267,0.56386 1.86942,0.894003 3.62633,1.081728 1.39075,0.148604 2.78094,0.479407 3.0893,0.735122 1.58971,1.318328 2.27199,6.054771 1.37598,9.552221 -1.02048,3.98334 -3.11158,6.61496 -7.53313,9.48035 -4.22254,2.73642 -9.0615,7.98326 -11.96428,12.97274 -1.27679,2.19462 -3.56711,6.0046 -5.08962,8.46663 -3.56117,5.75876 -4.91428,8.47209 -6.50747,13.04922 -2.65464,7.6266 -2.74066,8.16452 -3.05206,19.08663 -0.39095,13.71249 -0.63294,14.82519 -4.26903,19.62913 -3.74059,4.94201 -6.16064,11.54159 -6.996,19.07841 -0.29651,2.67514 -0.76671,5.73579 -1.04489,6.80143 -0.27818,1.06565 -0.41804,2.07952 -0.31079,2.25305 0.2584,0.41809 1.71175,0.0967 6.01986,-1.33139 z M 136.3783,104.47839 c 1.83842,-0.27984 3.38072,-0.5582 3.42733,-0.61859 0.0466,-0.0604 1.08089,-1.37492 2.29841,-2.92119 1.21752,-1.546257 2.13503,-2.890014 2.03892,-2.986125 -0.16929,-0.169293 -5.86171,0.507204 -7.05492,0.838418 -0.53323,0.148014 -4.94518,5.502007 -4.94518,6.001077 0,0.29447 0.46877,0.25976 4.23544,-0.31359 z"
       id="path84"
       transform="matrix(0.26458333,0,0,0.26458333,42.106554,153.8982)" />
    <path
       style="fill:#e7e8eb;stroke-width:0.357143;fill-opacity:1"
       d="m 115.53571,229.60771 c -17.090532,-2.0707 -34.857693,-9.34997 -49.464282,-20.26569 -4.591007,-3.43093 -14.160301,-12.7794 -17.97101,-17.55631 -10.879224,-13.63763 -18.015579,-29.57454 -21.03005,-46.96428 -0.729098,-4.20599 -0.805163,-5.80225 -0.808388,-16.96429 -0.0039,-13.67249 0.191891,-15.4355 2.839093,-25.55835 C 36.77459,72.955414 57.138834,48.376258 84.408628,35.543887 99.653632,28.370033 112.70479,25.748366 131.05071,26.1746 c 16.07518,0.373478 28.72914,3.412056 42.16357,10.124686 9.92145,4.957333 18.87154,11.474742 27.14286,19.765282 8.07004,8.088789 13.48072,15.446889 18.32377,24.918892 4.40404,8.613361 7.16961,16.053289 8.98931,24.18295 1.8062,8.06938 2.10565,11.31208 2.11186,22.8693 0.005,9.29136 -0.0983,11.37832 -0.77778,15.71429 -1.69825,10.83708 -4.53663,19.7286 -9.40569,29.46428 -5.32136,10.64007 -10.86549,18.32232 -19.59861,27.15689 -8.16469,8.25954 -15.54644,13.60192 -26.07143,18.86865 -9.88582,4.94688 -19.01856,7.97489 -29.28571,9.70984 -3.69925,0.6251 -6.33099,0.77578 -15.35715,0.8793 -5.99107,0.0687 -12.17857,-0.0309 -13.75,-0.22125 z m 38.83507,-18.58484 c 10.26121,-3.3765 20.05691,-8.61273 27.77208,-14.8454 3.26657,-2.6389 11.41047,-10.73706 14.06084,-13.98189 7.68088,-9.40366 14.63591,-24.37278 17.19381,-37.00576 1.18501,-5.85257 1.61034,-13.34436 1.2267,-21.60729 -0.36359,-7.83097 -0.79112,-11.14272 -2.12229,-16.43967 C 208.49756,91.208803 201.10568,78.243417 189.28827,66.42601 181.21037,58.348108 174.14768,53.457343 163.50875,48.574241 142.8968,39.113671 117.22882,38.57118 95.714285,47.14141 84.596278,51.570225 75.604821,57.574307 66.589564,66.589564 53.866791,79.312339 46.049628,93.825599 42.534468,111.25 c -1.600437,7.93325 -1.872006,22.02145 -0.584474,30.32073 0.717551,4.62524 2.636889,11.99223 4.289659,16.46498 3.583128,9.69672 11.366432,23.03572 13.441342,23.03572 1.429312,0 6.535858,-3.11975 8.837805,-5.39929 1.667967,-1.65173 2.757217,-3.33248 5.759075,-8.88643 4.171696,-7.71835 7.371789,-12.61181 12.728707,-19.46428 1.174043,-1.50182 3.14795,-4.92416 4.94375,-8.57143 1.64416,-3.33929 3.74261,-7.23928 4.663228,-8.66664 l 1.67385,-2.59521 -3.161564,-3.31603 c -4.924832,-5.16543 -7.307889,-8.56447 -7.828096,-11.16551 -0.269454,-1.34727 0.934057,-2.92531 3.279171,-4.29964 2.402646,-1.40805 4.372193,-1.88558 11.727119,-2.84334 11.00943,-1.43366 10.90928,-1.39769 21.59998,-7.75672 8.15741,-4.852175 8.52781,-4.979382 15.20312,-5.221275 5.48536,-0.198768 5.78583,-0.248764 7.5,-1.247939 4.8258,-2.812911 14.82528,-10.188457 23.03572,-16.990982 2.65178,-2.197061 6.10388,-4.961997 7.67132,-6.1443 l 2.8499,-2.149643 0.99547,1.192404 c 1.14735,1.374339 2.8831,5.664007 3.70474,9.155785 0.81486,3.462932 0.49242,7.616711 -0.90588,11.669607 -1.22925,3.562961 -1.37741,4.843718 -0.5603,4.843718 0.62265,0 1.95572,-2.013961 1.9577,-2.957636 0.002,-1.030325 0.91287,-1.084975 2.38035,-0.142835 0.94127,0.604318 2.07478,0.93806 3.61647,1.064818 1.23502,0.101542 2.50544,0.400214 2.82318,0.66371 1.61051,1.335607 2.29369,6.050747 1.38859,9.583698 -1.00048,3.90527 -3.32479,6.82969 -7.52869,9.47251 -2.41938,1.52097 -6.65477,5.49235 -8.7363,8.19172 -1.39823,1.81326 -9.47789,14.9531 -11.64952,18.94544 -1.61831,2.97512 -3.20888,7.10041 -4.68189,12.14286 -1.25031,4.28013 -1.25233,4.2988 -1.54888,14.32169 -0.40687,13.7519 -0.6339,14.79465 -4.26587,19.59315 -3.73089,4.92919 -6.13829,11.55579 -7.01136,19.29945 -0.28791,2.55357 -0.75113,5.51475 -1.02939,6.58039 -0.27826,1.06565 -0.41818,2.07952 -0.31093,2.25305 0.24435,0.39537 1.60199,0.102 5.56921,-1.20343 z M 136.3783,104.47839 c 1.83842,-0.27984 3.38005,-0.5582 3.42585,-0.61859 0.0458,-0.0604 1.07508,-1.37993 2.28728,-2.93231 1.21221,-1.552387 2.1443,-2.882237 2.0713,-2.95523 -0.073,-0.07299 -1.71792,0.0621 -3.65541,0.3002 -3.01387,0.370382 -3.64626,0.565107 -4.37809,1.348086 -1.13878,1.218384 -3.98637,4.914164 -3.98637,5.173754 0,0.29197 0.47436,0.25659 4.23544,-0.31591 z"
       id="path390"
       transform="matrix(0.26458333,0,0,0.26458333,42.106554,153.8982)" />
  </g>
</svg>
